<?xml version="1.0" encoding="utf-8"?>
<!-- Generator: Adobe Illustrator 16.0.0, SVG Export Plug-In . SVG Version: 6.00 Build 0)  -->
<!DOCTYPE svg PUBLIC "-//W3C//DTD SVG 1.1//EN" "http://www.w3.org/Graphics/SVG/1.1/DTD/svg11.dtd">
<svg version="1.1" id="Ebene_1" xmlns="http://www.w3.org/2000/svg" xmlns:xlink="http://www.w3.org/1999/xlink" x="0px" y="0px"
	 width="380px" height="380px" viewBox="0 0 380 380" enable-background="new 0 0 380 380" xml:space="preserve">
<g>
	<path fill="#FFFFFF" d="M24,24h332v332H24V24z"/>
	<path fill="#999999" d="M24,24v332h332V24H24z M47.713,47.713h284.574v284.574H47.713V47.713z"/>
	<polyline fill="#1EABF9" points="356,246 356,356 227.667,356 	"/>
	<path fill="#B2B2B2" d="M287.404,212.48c0,53.809-43.603,97.409-97.41,97.409c-53.811,0-97.41-43.602-97.41-97.409
		c0-48.707,35.733-89.075,82.424-96.241v-16.156h-13.112c-3.092,0-5.621-2.529-5.621-5.62V75.729c0-3.091,2.529-5.619,5.621-5.619
		h56.197c3.091,0,5.619,2.528,5.619,5.619v18.733c0,3.091-2.528,5.62-5.619,5.62H204.98v16.156
		c17.562,2.717,33.578,10.116,46.69,20.888l12.879-12.878c2.201-2.201,5.761-2.201,7.961,0l13.255,13.253c2.2,2.2,2.2,5.761,0,7.962
		l-13.77,13.769l-0.281,0.281C281.645,174.686,287.404,192.904,287.404,212.48z M204.979,229.338v-70.95
		c0-3.09-2.527-5.62-5.619-5.62h-18.731c-3.092,0-5.62,2.529-5.62,5.62v70.95c0,3.091,2.528,5.62,5.62,5.62h18.731
		C202.451,234.958,204.979,232.429,204.979,229.338z"/>
</g>
</svg>
